# xmcd
#
# Track frame offsets: 
#        150
#        10437
#        21663
#        32211
#        41764
#        51844
#        62885
#        74594
#        83881
#        94534
#        105365
#        114820
#        128144
#        138328
#        148029
#        156493
#        167374
#        178126
#        189523
#        200758
#        210894
#        221707
#        234295
#
# Disc length: 3273 seconds
#
# Revision: 0
# Processed by: cddbd v1.5.2PL0 Copyright (c) Steve Scherf et al.
# Submitted via: ExactAudioCopy v1.3
#
DISCID=4d0cc717
DTITLE=Jimmie Rodgers - The Complete US and UK Singles As and Bs 1957-1962
DTITLE=[CD1]
DYEAR=2015
DGENRE=Country
TTITLE0=Honeycomb
TTITLE1=Their Hearts Were Full Of Spring
TTITLE2=Kisses Sweeter Than Wine
TTITLE3=Better Loved You'll Never Be
TTITLE4=Oh Oh I'm Falling In Love Again
TTITLE5=The Long Hot Summer
TTITLE6=Secretly
TTITLE7=Make Me A Miracle
TTITLE8=Are You Really Mine
TTITLE9=The Wizard
TTITLE10=Woman From Liberia
TTITLE11=Girl In The Wood
TTITLE12=Bimbombey
TTITLE13=You Understand Me
TTITLE14=I'm Never Gonna Tell
TTITLE15=Because You're Young
TTITLE16=Ring-a-Ling-a-Lario
TTITLE17=Wonderful You
TTITLE18=Soldier, Won't You Marry Me
TTITLE19=Tucumcari
TTITLE20=The Night You Became Seventeen
TTITLE21=Wistful Willie
TTITLE22=It's Christmas Once Again
EXTD=
EXTT0=
EXTT1=
EXTT2=
EXTT3=
EXTT4=
EXTT5=
EXTT6=
EXTT7=
EXTT8=
EXTT9=
EXTT10=
EXTT11=
EXTT12=
EXTT13=
EXTT14=
EXTT15=
EXTT16=
EXTT17=
EXTT18=
EXTT19=
EXTT20=
EXTT21=
EXTT22=
PLAYORDER=
